<svg version="1.2" xmlns="http://www.w3.org/2000/svg" viewBox="0 0 2122 2122" width="2122" height="2122">
	<style>
		.s0 { fill: #2a2a32 } 
		.s1 { fill: #777777 } 
		.s2 { fill: #f7d7ba } 
		.s3 { fill: #f4bfaf } 
		.s4 { fill: #0059df } 
		.s5 { fill: #7193e2 } 
	</style>
	<g id="Capa 1">
		<g id="Folder 1">
			<path id="&lt;Path&gt;" class="s0" d="m1051.12 781.58l253.98-570.58c2.8-6.29-0.03-13.67-6.33-16.47-6.29-2.8-13.66 0.03-16.46 6.33l-253.98 570.57c-2.8 6.3 0.03 13.67 6.32 16.47 6.29 2.8 13.67-0.03 16.47-6.32zm1428.88-265.58"/>
			<path id="&lt;Path&gt;" class="s0" d="m942.14 815.67l-253.97-570.58c-2.8-6.3-10.18-9.13-16.47-6.33-6.29 2.8-9.12 10.18-6.32 16.47l253.97 570.58c2.8 6.3 10.18 9.13 16.47 6.32 6.29-2.8 9.12-10.17 6.32-16.46z"/>
			<path id="&lt;Path&gt;" class="s0" d="m1272.45 1007.11c0 140.27-113.71 253.98-253.97 253.98-140.28 0-253.99-113.71-253.99-253.98 0-140.27 113.71-253.97 253.99-253.97 140.26 0 253.97 113.7 253.97 253.97z"/>
			<path id="&lt;Path&gt;" class="s0" d="m561.61 1981.36h-120.31v-120.32h120.31z"/>
			<path id="&lt;Path&gt;" class="s0" d="m1662.53 1981.36h-120.31v-120.32h120.31z"/>
			<path id="&lt;Path&gt;" class="s1" d="m363.31 1903.79c-6.34 0-11.66-4.75-12.39-11.05l-108.29-939.86c-0.41-3.54 0.71-7.08 3.08-9.73 2.37-2.66 5.75-4.17 9.31-4.17h1611.28c3.56 0 6.94 1.51 9.31 4.17 2.37 2.65 3.49 6.19 3.08 9.73l-108.29 939.86c-0.73 6.3-6.06 11.05-12.39 11.05z"/>
			<path id="&lt;Compound Path&gt;" fill-rule="evenodd" class="s0" d="m1884.92 934.85c4.74 5.31 6.98 12.39 6.16 19.45l-108.29 939.87c-1.45 12.59-12.11 22.09-24.78 22.09h-1394.7c-12.67 0-23.33-9.5-24.78-22.09l-108.3-939.87c-0.8-7.06 1.44-14.14 6.17-19.45 4.73-5.31 11.5-8.35 18.62-8.35h1611.28c7.11 0 13.89 3.04 18.62 8.35zm-1629.9 16.6l108.29 939.87h1394.7l108.29-939.87zm1611.29 24.94h0.02z"/>
			<path id="&lt;Path&gt;" class="s2" d="m1439.97 1835.65h-1001.06l-95.46-828.54h1191.98z"/>
			<path id="&lt;Path&gt;" class="s0" d="m1725.79 1861.04h-199l102.06-879.32h198.25z"/>
			<path id="&lt;Path&gt;" class="s3" d="m438.91 1835.65l-95.46-828.54 587.3 414.27z"/>
			<path id="&lt;Path&gt;" class="s3" d="m1439.97 1835.65l95.46-828.54-587.3 414.27z"/>
			<path id="&lt;Path&gt;" class="s2" d="m1735.97 1483.33l-133.6 22.09 2.27-18.42 133.6-22.09z"/>
			<path id="&lt;Path&gt;" class="s2" d="m1726.53 1559.87l-133.59 22.09 2.27-18.42 133.59-22.09z"/>
			<path id="&lt;Path&gt;" class="s2" d="m1717.09 1636.41l-133.59 22.09 2.27-18.41 133.6-22.09z"/>
			<path id="&lt;Path&gt;" class="s2" d="m1707.66 1712.95l-133.6 22.09 2.27-18.41 133.6-22.09z"/>
			<path id="&lt;Path&gt;" class="s2" d="m1698.22 1789.5l-133.6 22.09 2.27-18.42 133.6-22.09z"/>
			<path id="&lt;Path&gt;" class="s2" d="m1786.85 1149.59c12.08 42.48-12.57 86.71-55.06 98.79-42.48 12.08-86.71-12.57-98.79-55.06-12.07-42.48 12.57-86.71 55.06-98.79 42.48-12.07 86.72 12.57 98.79 55.06z"/>
			<path id="&lt;Path&gt;" class="s3" d="m1636.72 1203.47c6.19 14.18 16.12 25.87 28.33 34.15l117.85-33.51c6.03-13.46 8.32-28.63 6.13-43.94z"/>
			<path id="&lt;Path&gt;" class="s2" d="m1623.76 1220.72c-2.77 0-5.49-0.92-7.71-2.67-3.01-2.36-4.77-5.98-4.77-9.81v-27.15c0-4.82 2.78-9.2 7.13-11.27l172.34-81.79c1.7-0.8 3.53-1.2 5.35-1.2 2.32 0 4.64 0.65 6.67 1.93 3.61 2.29 5.8 6.26 5.8 10.54v67.02c0 5.75-3.93 10.76-9.52 12.12l-172.35 41.92q-1.46 0.36-2.94 0.36z"/>
			<path id="&lt;Compound Path&gt;" fill-rule="evenodd" class="s0" d="m1809.43 1078.22c7.23 4.57 11.62 12.53 11.62 21.08v67.02c0 11.5-7.87 21.52-19.05 24.24l-172.35 41.92q-2.93 0.71-5.89 0.71c-5.54 0-10.98-1.84-15.42-5.33-6.02-4.73-9.53-11.96-9.53-19.62v-27.15c0-9.63 5.55-18.4 14.25-22.54l172.35-81.78c3.39-1.62 7.04-2.41 10.69-2.41 4.64 0 9.28 1.3 13.33 3.86zm-185.67 102.87v27.15l172.34-41.92v-67.02z"/>
			<path id="&lt;Path&gt;" class="s0" d="m1345.9 181.2c0 22.77-18.46 41.24-41.23 41.24-22.78 0-41.24-18.47-41.24-41.24 0-22.78 18.46-41.24 41.24-41.24 22.77 0 41.23 18.46 41.23 41.24z"/>
			<path id="&lt;Path&gt;" class="s0" d="m718.01 250.16c0 22.77-18.46 41.24-41.24 41.24-22.77 0-41.23-18.47-41.23-41.24 0-22.78 18.46-41.24 41.23-41.24 22.78 0 41.24 18.46 41.24 41.24z"/>
		</g>
		<path id="&lt;Path&gt; copy" class="s4" d="m1196.76 1789.05h-532.02c-133.76 0-243.2-109.44-243.2-243.21v-248.92c0-133.76 109.44-243.21 243.2-243.21h532.02c133.77 0 243.21 109.45 243.21 243.21v248.92c0 133.77-109.44 243.21-243.21 243.21z"/>
		<path id="&lt;Path&gt;" class="s5" d="m815.29 1213.95c0 46.03-56.79 83.34-126.84 83.34-70.05 0-126.84-37.31-126.84-83.34 0-46.03 56.79-83.35 126.84-83.35 70.05 0 126.84 37.32 126.84 83.35z"/>
		<path id="&lt;Path&gt;" class="s5" d="m815.29 1130.6c0-7.9 9.75-14.31 21.78-14.31 12.04 0 21.79 6.41 21.79 14.31 0 7.91-9.75 14.32-21.79 14.32-12.03 0-21.78-6.41-21.78-14.32z"/>
	</g>
</svg>